<svg width="39" height="61" viewBox="0 0 39 61" fill="none" xmlns="http://www.w3.org/2000/svg">
<path d="M9.0738 5.36678L17.4481 12.2776C15.4155 13.3346 15.6929 19.1041 16.0969 21.6916C16.0972 21.6954 16.4733 26.1253 18.5051 25.9367C25.9803 25.2426 21.8438 16.0293 21.8385 16.0176L25.3447 18.9649L28.2615 21.3836C23.0634 24.47 21.0296 28.3623 21.0255 28.3702C21.0383 28.3701 25.1814 28.3252 28.9423 28.3702H31.0259C33.221 28.3702 33.465 26.6684 32.6519 25.0423L38.2619 29.6766L1.83776 29.6982V28.3758H1.84538L1.83776 24.7984C3.94169 28.1319 6.71601 28.1319 9.31771 28.3758H10.6999C17.8546 28.3758 13.4642 10.1637 0.0490723 0.0820312H2.77593L9.0738 5.36678ZM20.7003 26.4245C18.5864 26.4245 17.692 26.9123 17.2042 27.644C16.8512 28.1735 19.5624 28.5504 20.1311 28.2132C20.9189 27.746 21.3711 26.4245 20.7003 26.4245ZM26.4122 21.3136C26.5541 21.0584 23.3227 18.1195 23.6478 18.7699C23.9731 19.4203 24.2577 22.278 23.7933 23.1603C23.3289 24.0425 26.2702 21.5689 26.4122 21.3136ZM15.4155 12.8467C15.8692 11.8832 7.52913 6.09867 9.31771 8.04981C12.6137 11.6453 14.2979 18.7056 14.7044 19.0138C15.1109 19.3216 14.3379 15.1353 15.4155 12.8467Z" fill="#D40301"/>
<path d="M2.77577 0L2.82801 0.0190556L9.12525 5.30333L17.4997 12.2142L17.4854 12.349C17.0046 12.599 16.6502 13.1341 16.3992 13.8566C16.149 14.577 16.0066 15.4702 15.9397 16.4156C15.8143 18.1879 15.9557 20.1295 16.1398 21.4275L16.1771 21.6783L16.1777 21.684C16.1781 21.6878 16.2017 21.9621 16.2678 22.3692C16.3344 22.7798 16.4441 23.3238 16.6165 23.8608C16.7892 24.399 17.0229 24.9239 17.3342 25.3011C17.6441 25.6764 18.0245 25.8989 18.4974 25.8549C20.3476 25.6831 21.4664 24.9864 22.1132 24.0488C22.7624 23.1077 22.9454 21.911 22.8956 20.7239C22.7961 18.3518 21.7687 16.0603 21.7642 16.0502L21.8906 15.9546L25.3965 18.9016L28.3133 21.3204L28.3028 21.4528C25.7127 22.9907 23.9114 24.7291 22.7575 26.0833C21.8434 27.156 21.3361 27.9877 21.1646 28.2869C21.9186 28.2796 25.5832 28.248 28.9431 28.2882H31.0257L31.1253 28.2869C31.6155 28.2748 31.9951 28.1728 32.2794 28.0079C32.5815 27.8327 32.7801 27.5841 32.8906 27.287C33.1131 26.6885 32.9809 25.8816 32.579 25.078L32.7035 24.9789L38.3135 29.6132L38.2617 29.7572L1.83759 29.7788L1.75629 29.6975V28.3751L1.76375 28.3674L1.75629 24.7978L1.90635 24.7543C2.94839 26.4053 4.15306 27.2271 5.41767 27.6682C6.68645 28.1109 8.01617 28.1715 9.32168 28.2937H10.6997C11.5754 28.2937 12.2684 28.0158 12.7901 27.5142C13.3133 27.0113 13.6706 26.2773 13.8609 25.3555C14.2417 23.5103 13.9487 20.9343 13.0107 18.0339C11.1354 12.2356 6.69336 5.17641 0 0.146252L0.0489094 0H2.77577ZM0.290121 0.162608C6.90447 5.20405 11.2984 12.2114 13.1654 17.9837C14.1074 20.8965 14.409 23.5037 14.02 25.3882C13.8253 26.3313 13.4566 27.099 12.9029 27.6314C12.3476 28.1652 11.6127 28.4564 10.6997 28.4564H9.31755L9.30993 28.456C8.01485 28.3346 6.6578 28.273 5.36415 27.8216C4.12602 27.3897 2.94672 26.6016 1.91937 25.0718L1.92652 28.3749L1.9189 28.3825V29.6162L38.0358 29.5948L32.872 25.329C33.1686 26.0483 33.256 26.7708 33.043 27.3437C32.9198 27.6752 32.6966 27.9538 32.361 28.1484C32.0474 28.3304 31.6393 28.4369 31.1291 28.4495L31.0257 28.4508H28.9412C25.1862 28.4058 21.0497 28.4505 21.0263 28.4508L20.9532 28.3319C20.9613 28.3163 22.9785 24.4595 28.1213 21.3723L25.2927 19.0267L22.0413 16.2936C22.3239 17.0038 22.979 18.8329 23.0581 20.7171C23.1086 21.9216 22.9244 23.159 22.2469 24.1411C21.5671 25.1265 20.3997 25.8417 18.5124 26.0169C17.9694 26.0673 17.5409 25.8067 17.2088 25.4044C16.8783 25.004 16.6369 24.4566 16.4617 23.9105C16.1248 22.8609 16.0242 21.7904 16.0164 21.7034L15.9789 21.4509C15.7936 20.1439 15.6512 18.1905 15.7776 16.4042C15.8449 15.4517 15.9889 14.5427 16.2457 13.8032C16.4847 13.1151 16.8257 12.5618 17.3053 12.2647L9.02187 5.42878L2.74623 0.162608H0.290121ZM20.7001 26.3425C20.7975 26.3425 20.8817 26.3666 20.9488 26.416C21.0158 26.4654 21.0589 26.535 21.0828 26.614C21.1295 26.7685 21.1058 26.9674 21.0398 27.1684C20.9071 27.5722 20.5862 28.0369 20.1724 28.2823C20.0884 28.3321 19.9721 28.3653 19.8405 28.3868C19.7074 28.4086 19.5519 28.4196 19.3849 28.4216C19.051 28.4255 18.665 28.393 18.3085 28.3331C17.9533 28.2735 17.6206 28.1857 17.3966 28.076C17.2862 28.0219 17.1916 27.9574 17.1381 27.8796C17.1104 27.8393 17.0921 27.7931 17.0911 27.7422C17.0901 27.6911 17.1068 27.6426 17.1364 27.5982C17.6466 26.833 18.5755 26.3425 20.7001 26.3425ZM20.7001 26.5051C18.5969 26.5051 17.7371 26.9902 17.2717 27.6884C17.2571 27.7102 17.2535 27.7267 17.2537 27.7391C17.254 27.7517 17.2584 27.7675 17.2722 27.7875C17.3016 27.8303 17.3654 27.8795 17.4683 27.9299C17.6712 28.0293 17.9857 28.1141 18.3353 28.1727C18.6835 28.2312 19.0599 28.2627 19.3832 28.259C19.5448 28.2571 19.6917 28.2463 19.8143 28.2263C19.9385 28.2059 20.0314 28.1771 20.0895 28.1426C20.4635 27.9208 20.7626 27.4912 20.8853 27.1175C20.9469 26.9298 20.9598 26.7689 20.9272 26.661C20.9114 26.6088 20.8859 26.5717 20.8524 26.547C20.8188 26.5223 20.7704 26.5051 20.7001 26.5051ZM23.635 18.5949C23.6611 18.5919 23.686 18.598 23.7042 18.604C23.7423 18.6164 23.7881 18.641 23.8371 18.6715C23.8874 18.7027 23.946 18.7431 24.0107 18.7909C24.2691 18.9815 24.6406 19.2981 25.016 19.6414C25.3918 19.985 25.7739 20.3577 26.0539 20.6612C26.1936 20.8126 26.3097 20.9487 26.3868 21.0563C26.425 21.1097 26.456 21.1593 26.4751 21.202C26.4846 21.2233 26.4926 21.2463 26.496 21.2694C26.4993 21.2918 26.4995 21.3228 26.483 21.3524C26.4689 21.3777 26.443 21.4086 26.4141 21.4402C26.3833 21.4738 26.3434 21.5142 26.2962 21.56C26.2019 21.6516 26.0761 21.7668 25.9313 21.8942C25.6417 22.1493 25.2739 22.4559 24.925 22.727C24.5777 22.9969 24.2441 23.2355 24.0243 23.351C23.9692 23.38 23.9181 23.4031 23.8738 23.4165C23.8517 23.4232 23.8289 23.4281 23.8068 23.4296C23.7852 23.4311 23.7587 23.4295 23.7331 23.4181C23.7051 23.4054 23.6833 23.3831 23.6717 23.3537C23.661 23.327 23.6609 23.2996 23.6639 23.2766C23.6697 23.2315 23.691 23.1791 23.7212 23.1217C23.8293 22.9163 23.8976 22.5859 23.931 22.186C23.9641 21.7888 23.9621 21.3326 23.9354 20.8822C23.9087 20.432 23.8574 19.9893 23.7928 19.6195C23.7277 19.2468 23.6505 18.9565 23.5749 18.8055C23.5635 18.7826 23.554 18.7599 23.5486 18.7385C23.5438 18.7195 23.5386 18.6884 23.5514 18.657C23.5679 18.6166 23.6036 18.5986 23.635 18.5949ZM23.7557 18.8123C23.829 18.9938 23.8968 19.2693 23.953 19.5915C24.0188 19.968 24.0707 20.4168 24.0977 20.8725C24.1247 21.3282 24.1271 21.7925 24.0931 22.1996C24.0594 22.6039 23.9891 22.9616 23.8651 23.1973C23.8524 23.2215 23.8434 23.2413 23.8371 23.257C23.8659 23.2472 23.9032 23.231 23.9486 23.2072C24.1542 23.0991 24.4777 22.8686 24.8253 22.5985C25.1714 22.3296 25.5365 22.0251 25.8238 21.7721C25.9675 21.6456 26.0912 21.5325 26.183 21.4434C26.229 21.3988 26.2665 21.3608 26.2942 21.3305C26.3133 21.3096 26.3254 21.2943 26.3328 21.2845C26.3314 21.2804 26.3296 21.275 26.3266 21.2683C26.3141 21.2403 26.2904 21.201 26.2545 21.1509C26.1833 21.0515 26.0727 20.9212 25.9345 20.7714C25.6587 20.4724 25.28 20.1032 24.9063 19.7614C24.5323 19.4194 24.1657 19.1073 23.9141 18.9217C23.8534 18.8769 23.8001 18.8402 23.7557 18.8123ZM9.04966 7.58206C9.08759 7.56399 9.13066 7.56742 9.16272 7.57301C9.1984 7.57924 9.23941 7.59183 9.28373 7.60858C9.37276 7.64224 9.48627 7.69708 9.61831 7.76849C10.1465 8.05415 11.0107 8.62703 11.9139 9.28897C12.8176 9.95131 13.7647 10.7059 14.4581 11.3563C14.8044 11.6811 15.0902 11.9826 15.2758 12.2351C15.3683 12.3611 15.4386 12.4785 15.4781 12.5832C15.5168 12.6861 15.5311 12.791 15.4889 12.8806C14.9589 14.0063 14.8817 15.6075 14.8894 16.9026C14.8913 17.2253 14.8985 17.528 14.905 17.7986C14.9115 18.0686 14.9173 18.3076 14.9166 18.5014C14.9158 18.693 14.9087 18.8487 14.8867 18.9479C14.8811 18.9734 14.8738 18.9977 14.8643 19.0192C14.8551 19.0401 14.8413 19.0636 14.8199 19.0818C14.7961 19.1019 14.7651 19.1133 14.7309 19.1099C14.7 19.1068 14.6744 19.0924 14.6552 19.0778C14.6319 19.0602 14.612 19.0354 14.595 19.0102C14.5773 18.9839 14.5591 18.9519 14.5405 18.9155C14.5034 18.8427 14.4617 18.7466 14.4157 18.631C14.3236 18.3995 14.211 18.0827 14.0778 17.7023C13.8111 16.9404 13.46 15.9183 13.0188 14.7935C12.1354 12.5418 10.8948 9.88998 9.25769 8.10403C9.14519 7.9813 9.06779 7.88419 9.02584 7.81152C9.00558 7.77643 8.98841 7.73838 8.98503 7.70132C8.98323 7.68159 8.98498 7.65774 8.99646 7.63431C9.00855 7.60967 9.02801 7.59238 9.04966 7.58206ZM9.17448 7.74292C9.20941 7.79934 9.27446 7.88183 9.37742 7.99414C11.0362 9.80369 12.2857 12.4798 13.1701 14.7341C13.6127 15.8623 13.965 16.8877 14.2314 17.6487C14.3647 18.0296 14.4761 18.3431 14.5667 18.5708C14.6121 18.6847 14.6516 18.7755 14.6854 18.8417C14.7011 18.8725 14.7152 18.8967 14.7273 18.9151C14.7275 18.9143 14.7277 18.9135 14.7279 18.9127C14.7456 18.833 14.7532 18.6941 14.754 18.5008C14.7547 18.3097 14.749 18.0733 14.7425 17.8024C14.736 17.5319 14.7287 17.2279 14.7268 16.9036C14.7191 15.6104 14.7943 13.9743 15.3418 12.8114C15.3563 12.7806 15.3586 12.7273 15.3259 12.6405C15.2939 12.5556 15.2333 12.4519 15.1448 12.3314C14.968 12.0908 14.6906 11.7974 14.3468 11.475C13.66 10.8308 12.7188 10.0805 11.8178 9.42013C10.9163 8.75944 10.0593 8.1917 9.54098 7.91141C9.41139 7.84133 9.30526 7.79058 9.22624 7.76071C9.20672 7.75333 9.18951 7.74742 9.17448 7.74292Z" fill="#D40301"/>
<path d="M9.0738 55.6332L17.4481 48.7224C15.4155 47.6654 15.6929 41.8959 16.0969 39.3084C16.0972 39.3046 16.4733 34.8747 18.5051 35.0633C25.9803 35.7574 21.8438 44.9707 21.8385 44.9824L25.3447 42.0351L28.2615 39.6164C23.0634 36.53 21.0296 32.6377 21.0255 32.6298C21.0383 32.6299 25.1814 32.6748 28.9423 32.6298H31.0259C33.221 32.6298 33.465 34.3316 32.6519 35.9577L38.2619 31.3234L1.83776 31.3018V32.6242H1.84538L1.83776 36.2016C3.94169 32.8681 6.71601 32.8681 9.31771 32.6242H10.6999C17.8546 32.6242 13.4642 50.8363 0.0490723 60.918H2.77593L9.0738 55.6332ZM20.7003 34.5755C18.5864 34.5755 17.692 34.0877 17.2042 33.356C16.8512 32.8265 19.5624 32.4496 20.1311 32.7868C20.9189 33.254 21.3711 34.5755 20.7003 34.5755ZM26.4122 39.6864C26.5541 39.9416 23.3227 42.8805 23.6478 42.2301C23.9731 41.5797 24.2577 38.722 23.7933 37.8397C23.3289 36.9575 26.2702 39.4311 26.4122 39.6864ZM15.4155 48.1533C15.8692 49.1168 7.52913 54.9013 9.31771 52.9502C12.6137 49.3547 14.2979 42.2944 14.7044 41.9862C15.1109 41.6784 14.3379 45.8647 15.4155 48.1533Z" fill="#D40301"/>
<path d="M2.77577 61L2.82801 60.9809L9.12525 55.6967L17.4997 48.7858L17.4854 48.651C17.0046 48.401 16.6502 47.8659 16.3992 47.1434C16.149 46.423 16.0066 45.5298 15.9397 44.5844C15.8143 42.8121 15.9557 40.8705 16.1398 39.5725L16.1771 39.3217L16.1777 39.316C16.1781 39.3122 16.2017 39.0379 16.2678 38.6308C16.3344 38.2202 16.4441 37.6762 16.6165 37.1392C16.7892 36.601 17.0229 36.0761 17.3342 35.6989C17.6441 35.3236 18.0245 35.1011 18.4974 35.1451C20.3476 35.3169 21.4664 36.0136 22.1132 36.9512C22.7624 37.8923 22.9454 39.089 22.8956 40.2761C22.7961 42.6482 21.7687 44.9397 21.7642 44.9498L21.8906 45.0454L25.3965 42.0984L28.3133 39.6796L28.3028 39.5472C25.7127 38.0093 23.9114 36.2709 22.7575 34.9167C21.8434 33.844 21.3361 33.0123 21.1646 32.7131C21.9186 32.7204 25.5832 32.752 28.9431 32.7118H31.0257L31.1253 32.7131C31.6155 32.7252 31.9951 32.8272 32.2794 32.9921C32.5815 33.1673 32.7801 33.4158 32.8906 33.713C33.1131 34.3115 32.9809 35.1184 32.579 35.922L32.7035 36.0211L38.3135 31.3868L38.2617 31.2428L1.83759 31.2212L1.75629 31.3025V32.6249L1.76375 32.6326L1.75629 36.2022L1.90635 36.2457C2.94839 34.5947 4.15306 33.7729 5.41767 33.3318C6.68645 32.8891 8.01617 32.8285 9.32168 32.7063H10.6997C11.5754 32.7063 12.2684 32.9842 12.7901 33.4858C13.3133 33.9887 13.6706 34.7227 13.8609 35.6445C14.2417 37.4897 13.9487 40.0657 13.0107 42.9661C11.1354 48.7644 6.69336 55.8236 0 60.8537L0.0489094 61H2.77577ZM0.290121 60.8374C6.90447 55.7959 11.2984 48.7886 13.1654 43.0163C14.1074 40.1035 14.409 37.4963 14.02 35.6118C13.8253 34.6687 13.4566 33.901 12.9029 33.3686C12.3476 32.8348 11.6127 32.5436 10.6997 32.5436H9.31755L9.30993 32.544C8.01485 32.6654 6.6578 32.727 5.36415 33.1784C4.12602 33.6103 2.94672 34.3984 1.91937 35.9282L1.92652 32.6251L1.9189 32.6175V31.3838L38.0358 31.4052L32.872 35.671C33.1686 34.9517 33.256 34.2292 33.043 33.6563C32.9198 33.3248 32.6966 33.0462 32.361 32.8516C32.0474 32.6696 31.6393 32.5631 31.1291 32.5505L31.0257 32.5492H28.9412C25.1862 32.5942 21.0497 32.5495 21.0263 32.5492L20.9532 32.6681C20.9613 32.6837 22.9785 36.5405 28.1213 39.6277L25.2927 41.9733L22.0413 44.7064C22.3239 43.9962 22.979 42.1671 23.0581 40.2829C23.1086 39.0784 22.9244 37.841 22.2469 36.8589C21.5671 35.8735 20.3997 35.1583 18.5124 34.9831C17.9694 34.9327 17.5409 35.1933 17.2088 35.5956C16.8783 35.996 16.6369 36.5434 16.4617 37.0895C16.1248 38.1391 16.0242 39.2096 16.0164 39.2966L15.9789 39.5491C15.7936 40.8561 15.6512 42.8095 15.7776 44.5958C15.8449 45.5483 15.9889 46.4573 16.2457 47.1968C16.4847 47.8849 16.8257 48.4382 17.3053 48.7353L9.02187 55.5712L2.74623 60.8374H0.290121ZM20.7001 34.6575C20.7975 34.6575 20.8817 34.6334 20.9488 34.584C21.0158 34.5346 21.0589 34.465 21.0828 34.386C21.1295 34.2315 21.1058 34.0326 21.0398 33.8316C20.9071 33.4278 20.5862 32.9631 20.1724 32.7177C20.0884 32.6679 19.9721 32.6347 19.8405 32.6132C19.7074 32.5914 19.5519 32.5804 19.3849 32.5784C19.051 32.5746 18.665 32.607 18.3085 32.6669C17.9533 32.7265 17.6206 32.8143 17.3966 32.924C17.2862 32.9781 17.1916 33.0426 17.1381 33.1204C17.1104 33.1607 17.0921 33.2069 17.0911 33.2578C17.0901 33.3089 17.1068 33.3574 17.1364 33.4018C17.6466 34.167 18.5755 34.6575 20.7001 34.6575ZM20.7001 34.4949C18.5969 34.4949 17.7371 34.0098 17.2717 33.3116C17.2571 33.2898 17.2535 33.2733 17.2537 33.2609C17.254 33.2483 17.2584 33.2325 17.2722 33.2125C17.3016 33.1697 17.3654 33.1205 17.4683 33.0701C17.6712 32.9707 17.9857 32.8859 18.3353 32.8273C18.6835 32.7688 19.0599 32.7373 19.3832 32.741C19.5448 32.7429 19.6917 32.7537 19.8143 32.7737C19.9385 32.7941 20.0314 32.8229 20.0895 32.8574C20.4635 33.0792 20.7626 33.5088 20.8853 33.8825C20.9469 34.0702 20.9598 34.2311 20.9272 34.339C20.9114 34.3912 20.8859 34.4283 20.8524 34.453C20.8188 34.4777 20.7704 34.4949 20.7001 34.4949ZM23.635 42.4051C23.6611 42.4081 23.686 42.402 23.7042 42.396C23.7423 42.3836 23.7881 42.359 23.8371 42.3285C23.8874 42.2973 23.946 42.2569 24.0107 42.2091C24.2691 42.0185 24.6406 41.7019 25.016 41.3586C25.3918 41.015 25.7739 40.6423 26.0539 40.3388C26.1936 40.1874 26.3097 40.0513 26.3868 39.9437C26.425 39.8903 26.456 39.8407 26.4751 39.798C26.4846 39.7767 26.4926 39.7537 26.496 39.7306C26.4993 39.7082 26.4995 39.6772 26.483 39.6476C26.4689 39.6223 26.443 39.5914 26.4141 39.5598C26.3833 39.5262 26.3434 39.4858 26.2962 39.44C26.2019 39.3484 26.0761 39.2332 25.9313 39.1058C25.6417 38.8507 25.2739 38.5441 24.925 38.273C24.5777 38.0031 24.2441 37.7645 24.0243 37.649C23.9692 37.62 23.9181 37.5969 23.8738 37.5835C23.8517 37.5768 23.8289 37.5719 23.8068 37.5704C23.7852 37.5689 23.7587 37.5704 23.7331 37.5819C23.7051 37.5946 23.6833 37.6169 23.6717 37.6463C23.661 37.673 23.6609 37.7004 23.6639 37.7234C23.6697 37.7685 23.691 37.8209 23.7212 37.8783C23.8293 38.0837 23.8976 38.4141 23.931 38.814C23.9641 39.2112 23.9621 39.6674 23.9354 40.1178C23.9087 40.568 23.8574 41.0107 23.7928 41.3805C23.7277 41.7532 23.6505 42.0435 23.5749 42.1945C23.5635 42.2174 23.554 42.2401 23.5486 42.2615C23.5438 42.2805 23.5386 42.3116 23.5514 42.343C23.5679 42.3834 23.6036 42.4015 23.635 42.4051ZM23.7557 42.1877C23.829 42.0062 23.8968 41.7307 23.953 41.4085C24.0188 41.032 24.0707 40.5832 24.0977 40.1275C24.1247 39.6718 24.1271 39.2075 24.0931 38.8004C24.0594 38.3961 23.9891 38.0384 23.8651 37.8027C23.8524 37.7785 23.8434 37.7587 23.8371 37.743C23.8659 37.7528 23.9032 37.769 23.9486 37.7928C24.1542 37.9009 24.4777 38.1314 24.8253 38.4015C25.1714 38.6704 25.5365 38.9749 25.8238 39.2279C25.9675 39.3544 26.0912 39.4675 26.183 39.5566C26.229 39.6012 26.2665 39.6392 26.2942 39.6695C26.3133 39.6904 26.3254 39.7057 26.3328 39.7155C26.3314 39.7196 26.3296 39.725 26.3266 39.7317C26.3141 39.7597 26.2904 39.799 26.2545 39.8491C26.1833 39.9485 26.0727 40.0788 25.9345 40.2286C25.6587 40.5276 25.28 40.8968 24.9063 41.2386C24.5323 41.5806 24.1657 41.8927 23.9141 42.0783C23.8534 42.1231 23.8001 42.1598 23.7557 42.1877ZM9.04966 53.4179C9.08759 53.436 9.13066 53.4326 9.16272 53.427C9.1984 53.4208 9.23941 53.4082 9.28373 53.3914C9.37276 53.3578 9.48627 53.3029 9.61831 53.2315C10.1465 52.9458 11.0107 52.373 11.9139 51.711C12.8176 51.0487 13.7647 50.2941 14.4581 49.6437C14.8044 49.3189 15.0902 49.0174 15.2758 48.7649C15.3683 48.6389 15.4386 48.5215 15.4781 48.4168C15.5168 48.3139 15.5311 48.209 15.4889 48.1194C14.9589 46.9937 14.8817 45.3925 14.8894 44.0974C14.8913 43.7747 14.8985 43.472 14.905 43.2014C14.9115 42.9314 14.9173 42.6924 14.9166 42.4986C14.9158 42.307 14.9087 42.1513 14.8867 42.0521C14.8811 42.0266 14.8738 42.0023 14.8643 41.9808C14.8551 41.9599 14.8413 41.9364 14.8199 41.9182C14.7961 41.8981 14.7651 41.8867 14.7309 41.8901C14.7 41.8932 14.6744 41.9076 14.6552 41.9222C14.6319 41.9398 14.612 41.9647 14.595 41.9898C14.5773 42.0161 14.5591 42.0481 14.5405 42.0845C14.5034 42.1573 14.4617 42.2534 14.4157 42.369C14.3236 42.6005 14.211 42.9173 14.0778 43.2977C13.8111 44.0596 13.46 45.0817 13.0188 46.2065C12.1354 48.4582 10.8948 51.11 9.25769 52.896C9.14519 53.0187 9.06779 53.1158 9.02584 53.1885C9.00558 53.2236 8.98841 53.2616 8.98503 53.2987C8.98323 53.3184 8.98498 53.3423 8.99646 53.3657C9.00855 53.3903 9.02801 53.4076 9.04966 53.4179ZM9.17448 53.2571C9.20941 53.2007 9.27446 53.1182 9.37742 53.0059C11.0362 51.1963 12.2857 48.5202 13.1701 46.2659C13.6127 45.1377 13.965 44.1123 14.2314 43.3513C14.3647 42.9704 14.4761 42.6569 14.5667 42.4292C14.6121 42.3153 14.6516 42.2245 14.6854 42.1583C14.7011 42.1275 14.7152 42.1033 14.7273 42.0849C14.7275 42.0857 14.7277 42.0865 14.7279 42.0873C14.7456 42.167 14.7532 42.3059 14.754 42.4992C14.7547 42.6903 14.749 42.9267 14.7425 43.1976C14.736 43.4681 14.7287 43.7721 14.7268 44.0964C14.7191 45.3896 14.7943 47.0257 15.3418 48.1886C15.3563 48.2194 15.3586 48.2727 15.3259 48.3595C15.2939 48.4444 15.2333 48.5481 15.1448 48.6686C14.968 48.9092 14.6906 49.2026 14.3468 49.525C13.66 50.1692 12.7188 50.9195 11.8178 51.5799C10.9163 52.2406 10.0593 52.8083 9.54098 53.0886C9.41139 53.1587 9.30526 53.2094 9.22624 53.2393C9.20672 53.2467 9.18951 53.2526 9.17448 53.2571Z" fill="#D40301"/>
</svg>
