<svg width="202" height="203" viewBox="0 0 202 203" fill="none" xmlns="http://www.w3.org/2000/svg">
<path opacity="0.35" fill-rule="evenodd" clip-rule="evenodd" d="M95.6011 1.01177C63.5001 2.88011 34.4886 19.5257 16.8889 46.1731C7.63748 60.1806 2.34942 75.0248 0.51108 92.1466C0.0350934 96.5798 0.0362754 107.266 0.513247 111.68C2.67942 131.731 9.92837 149.616 22.0252 164.757C36.9188 183.398 57.7247 196.194 80.7265 200.859C88.2428 202.383 92.6721 202.812 100.92 202.812C109.152 202.812 113.512 202.391 121.114 200.864C153.294 194.399 180.817 171.833 193.796 141.272C198.092 131.156 201.036 118.668 201.529 108.474C201.599 107.036 201.731 105.86 201.822 105.86C201.914 105.86 201.987 103.973 201.986 101.667C201.984 99.3609 201.909 97.5899 201.82 97.7315C201.726 97.8799 201.604 96.8744 201.533 95.3638C201.293 90.2402 200.274 83.5867 198.835 77.7429C195.115 62.6324 188.158 49.0057 177.882 36.7022C175.542 33.9008 169.409 27.6995 166.625 25.3209C150.7 11.7151 131.529 3.48546 110.87 1.38666C107.872 1.08221 98.3912 0.849385 95.6011 1.01177ZM95.7729 8.78366C74.6636 10.1104 55.4458 17.9667 39.7475 31.6871C21.7339 47.4312 10.5941 69.1362 8.21099 93.1332C7.76003 97.6729 7.76003 106.154 8.21099 110.694C10.3665 132.399 19.6246 152.154 34.842 167.519C56.2652 189.151 86.4917 198.901 116.47 193.851C148.594 188.439 175.841 166.18 187.71 135.654C194.617 117.889 195.896 98.1982 191.346 79.6868C181.916 41.3215 149.016 12.8133 109.885 9.09916C105.845 8.71579 99.2125 8.56741 95.7729 8.78366ZM81.5145 65.3987C80.4497 65.6574 79.6504 66.1975 79.1003 67.0299L78.5593 67.8486L78.5085 101.717L78.4575 135.585L78.9177 136.458C79.8486 138.223 82.2474 139.011 83.9818 138.121C86.7228 136.714 141.151 105.087 141.661 104.604C142.072 104.216 142.42 103.61 142.611 102.952C142.882 102.02 142.882 101.807 142.611 100.875C142.42 100.218 142.071 99.6103 141.661 99.2216C141.151 98.7384 86.436 66.9449 84.0757 65.7604C83.2963 65.3691 82.2463 65.221 81.5145 65.3987ZM0.132812 101.914C0.132812 104.247 0.161183 105.201 0.196054 104.035C0.230926 102.868 0.230926 100.959 0.196054 99.7924C0.161183 98.6257 0.132812 99.5803 0.132812 101.914Z" fill="white"/>
</svg>
