<svg width="23" height="23" viewBox="0 0 23 23" fill="none" xmlns="http://www.w3.org/2000/svg">
<path d="M11.5451 0.000743557C11.9578 0.00337279 12.4935 0.0135773 12.7646 0.0435482C16.1642 0.419305 19.228 2.29541 21.1085 5.13977C24.0665 9.61401 23.5073 15.5308 19.7667 19.3937C18.6078 20.5903 17.027 21.6162 15.4558 22.1917C14.9491 22.3772 13.9456 22.6525 13.4593 22.7168L11.6549 22.9555V22.9992L11.4902 22.977L11.3197 23V22.9547L9.52028 22.7168C9.03399 22.6525 8.03115 22.3772 7.52458 22.1917C5.95245 21.6158 4.29613 20.5371 3.16133 19.341C1.41899 17.5046 0.324946 15.1787 0.0483982 12.6956C-0.0174141 12.1044 -0.0153799 10.7551 0.050062 10.1561C0.283276 8.02328 1.18184 5.89547 2.55238 4.20794C2.94023 3.73041 3.74273 2.92986 4.21949 2.5468C5.97335 1.13753 8.10361 0.255965 10.3289 0.0287312C10.5988 0.00121494 11.1364 -0.00185671 11.5451 0.000743557ZM12.5758 1.71869C12.2469 1.68233 10.8198 1.6733 10.5036 1.70552C8.61419 1.89846 6.79519 2.64895 5.29346 3.85563C4.91217 4.16198 4.19497 4.87743 3.88091 5.26407C2.7105 6.70516 1.94136 8.53033 1.74379 10.3372C1.69118 10.8184 1.69027 12.0455 1.74212 12.5112C1.97761 14.6253 2.90946 16.6124 4.40334 18.1869C5.35345 19.1884 6.78502 20.123 8.11522 20.6103C8.54962 20.7695 9.425 21.0033 9.74573 21.0458L9.9512 21.073V14.2604H7.46469V11.4296H9.9512V10.1026C9.95136 8.69486 9.98342 8.32335 10.15 7.81259C10.5287 6.65141 11.3283 5.9039 12.5359 5.58263C12.9051 5.48445 12.9858 5.47778 13.7796 5.47727C14.5364 5.47678 15.5259 5.55425 15.8019 5.63531C15.8657 5.65412 15.8709 5.74738 15.8709 6.86759V8.08012L14.9924 8.09658C13.9604 8.11542 13.7816 8.1597 13.4643 8.47688C13.088 8.85307 13.0226 9.16328 13.0383 10.4862L13.0492 11.4098L14.401 11.4205C15.652 11.4301 15.752 11.4358 15.7511 11.4987C15.7504 11.5363 15.6558 12.1687 15.5415 12.9039L15.3344 14.2407L13.0492 14.2802L13.0292 21.073L13.2338 21.0458C13.5545 21.0034 14.4296 20.7695 14.8643 20.6103C16.1939 20.1234 17.5568 19.2397 18.5371 18.2273C21.7303 14.9297 22.2056 9.87873 19.6826 6.06254C18.0776 3.63503 15.4653 2.03815 12.5758 1.71869Z" fill="#AFAFAF"/>
</svg>
