<svg width="18" height="21" viewBox="0 0 18 21" fill="none" xmlns="http://www.w3.org/2000/svg">
<path fill-rule="evenodd" clip-rule="evenodd" d="M9.55209 0.00819056C9.53472 0.0116239 9.51918 0.0159797 9.51757 0.0178843C9.51595 0.0197889 9.51211 3.28242 9.50905 7.26816C9.50311 14.9784 9.50531 14.5919 9.46606 14.8389C9.38479 15.3503 9.17398 15.8323 8.84941 16.2487C8.74594 16.3815 8.51939 16.6132 8.39126 16.7173C7.9208 17.0995 7.36469 17.3256 6.77967 17.3726C6.62427 17.3851 6.31381 17.3784 6.17017 17.3595C5.60202 17.2847 5.10198 17.0713 4.6638 16.7165C4.54121 16.6172 4.30883 16.3829 4.21861 16.2675C3.84724 15.7926 3.63495 15.2702 3.56545 14.6602C3.55161 14.5387 3.55165 14.1578 3.56551 14.041C3.61852 13.5941 3.74081 13.2036 3.93614 12.8577C4.39927 12.0375 5.20338 11.4831 6.12399 11.3493C6.20167 11.338 6.3094 11.3306 6.44159 11.3275C6.73081 11.3208 6.89949 11.3376 7.19044 11.4021C7.38204 11.4447 7.39631 11.4473 7.40238 11.4411C7.41473 11.4286 7.42013 10.0993 7.41223 9.01901C7.40768 8.3966 7.40176 7.8635 7.39908 7.83433L7.39421 7.78131L7.35531 7.76858C7.2503 7.7342 6.90349 7.70969 6.52286 7.70974C6.14813 7.7098 5.93685 7.72418 5.59916 7.77263C4.32366 7.95561 3.10735 8.53975 2.13947 9.4342C1.51794 10.0086 1.02087 10.6825 0.649398 11.4543C0.294998 12.1907 0.0734859 13.0072 0.014856 13.7933C0.00020274 13.9898 -0.00507916 14.5234 0.00573656 14.7157C0.0581693 15.6482 0.279833 16.4937 0.690889 17.3291C1.52087 19.0159 3.03378 20.2746 4.82673 20.7699C5.93668 21.0765 7.11097 21.0767 8.23171 20.7704C8.70939 20.6399 9.12016 20.475 9.56962 20.2335C10.7699 19.5884 11.7393 18.5864 12.3586 17.3505C12.7315 16.6062 12.9653 15.7827 13.0388 14.9548C13.063 14.682 13.0643 14.47 13.0643 10.8235C13.0644 7.17447 13.0648 7.07209 13.08 7.06381C13.0972 7.05445 13.165 7.09375 13.3555 7.22359C13.7519 7.49363 14.2821 7.77975 14.7522 7.97736C15.7321 8.38924 16.791 8.61618 17.7894 8.62825C17.9143 8.62977 17.9703 8.62749 17.9771 8.62064C17.9942 8.60338 18.0041 7.49076 17.9984 6.239C17.9954 5.60016 17.9908 5.06498 17.9881 5.04971C17.9836 5.02392 17.9809 5.02195 17.9502 5.02195C17.8982 5.02195 17.421 4.98031 17.3092 4.96602C17.2013 4.95224 16.9679 4.90604 16.8305 4.87131C16.343 4.74799 15.8592 4.54627 15.4449 4.29354C14.7615 3.87674 14.1732 3.264 13.7252 2.50243C13.5937 2.27875 13.4264 1.90756 13.3303 1.62586C13.1878 1.20837 13.0872 0.657534 13.0678 0.187896C13.0641 0.0992518 13.0581 0.046342 13.0498 0.0277574L13.0372 0L11.3105 0.000982184C10.3607 0.00152025 9.56947 0.00476573 9.55209 0.00819056Z" fill="#AFAFAF"/>
</svg>
