<svg width="35" height="21" viewBox="0 0 35 21" fill="none" xmlns="http://www.w3.org/2000/svg">
<path fill-rule="evenodd" clip-rule="evenodd" d="M0.155338 0.155737C0.00407279 0.307436 0 0.357508 0 2.05749C0 4.69694 0.23908 6.25175 0.961537 8.31179C1.95287 11.1381 3.4383 13.42 5.66426 15.5359C8.29957 18.0408 11.4358 19.7061 15.0408 20.5147C16.3291 20.8037 17.2814 20.9274 18.597 20.9768C19.708 21.0185 19.7263 21.0169 19.901 20.8623L20.0782 20.7055V13.987L20.3818 14.0343C20.9438 14.122 22.1467 14.5295 22.8478 14.8698C24.9584 15.8942 26.7414 17.83 27.6869 20.1233C27.8318 20.4749 28.0155 20.8157 28.095 20.8804C28.2281 20.9889 28.4961 20.9982 31.4703 20.9982H34.701L34.8564 20.8425C35.0738 20.6245 35.0531 20.4 34.7339 19.5144C34.2133 18.0698 33.6939 17.069 32.8093 15.8053C31.5011 13.9368 29.4985 12.0453 27.4914 10.7827C27.2261 10.6159 27.0106 10.4611 27.0124 10.4387C27.0142 10.4164 27.3093 10.1861 27.6681 9.92704C28.4741 9.34488 30.0513 7.88738 30.6489 7.17237C32.2097 5.30461 33.187 3.35285 33.5452 1.3877C33.698 0.549184 33.6879 0.362152 33.4787 0.165226L33.3034 0H30.3102C27.5499 0 27.3083 0.00915308 27.2048 0.117778C27.1432 0.18259 26.9582 0.583844 26.7938 1.00953C25.7462 3.7224 24.067 5.80109 21.9874 6.95916C21.4318 7.26848 20.6303 7.6136 20.2747 7.69645L20.0782 7.74228V0.292696L19.9128 0.146315C19.7487 0.00114438 19.7256 0 16.8819 0C15.3058 0 13.9643 0.0188447 13.9007 0.0417947C13.5711 0.160919 13.576 0.0569372 13.576 6.99604C13.576 10.5885 13.5495 13.5277 13.5171 13.5277C13.4847 13.5277 13.1551 13.3407 12.7847 13.1121C11.2679 12.1762 9.82944 10.4691 8.92342 8.52998C7.95224 6.45116 7.36919 4.02425 7.15197 1.15618C7.0971 0.431675 7.06859 0.306291 6.92611 0.163476L6.76305 0H0.310747L0.155338 0.155737ZM1.14324 2.42549C1.14324 3.1673 1.17711 4.06834 1.21841 4.42773C2.00146 11.2335 7.00192 17.004 13.9521 19.1222C15.3337 19.5433 17.5465 19.9214 18.6291 19.9214H19.0064V16.5226C19.0064 13.2136 19.0102 13.1203 19.1493 12.9893C19.3363 12.8131 19.7375 12.8138 20.6101 12.9919C22.8264 13.4442 24.617 14.4003 26.2021 15.978C27.1447 16.916 28.0586 18.2259 28.5894 19.3998L28.8254 19.9214H31.2398C33.124 19.9214 33.654 19.9029 33.6535 19.8372C33.6531 19.791 33.5127 19.4299 33.3413 19.0349C32.5145 17.1288 31.2578 15.379 29.5944 13.818C28.4513 12.7451 27.4207 11.9993 25.6898 10.9924C25.5733 10.9247 25.431 10.7901 25.3734 10.6934C25.2094 10.4178 25.3606 10.1823 25.9521 9.79243C28.7335 7.95906 30.8136 5.58875 31.8579 3.06224C32.069 2.55175 32.4389 1.34187 32.4392 1.16096C32.4394 1.09547 31.944 1.07683 30.2 1.07683H27.9606L27.8699 1.36286C27.6999 1.89906 27.0376 3.26542 26.6362 3.90789C25.3826 5.91423 23.6704 7.44393 21.7163 8.30324C20.9984 8.61889 20.2261 8.85828 19.7133 8.92404C19.4579 8.95675 19.3627 8.93703 19.2029 8.81824L19.0064 8.67219V1.07683H14.7192V14.581L14.5434 14.7366C14.3229 14.9318 14.0061 14.9039 13.3526 14.6318C11.1015 13.6945 9.14957 11.6823 7.88943 8.99982C7.00592 7.11907 6.41301 4.90328 6.14756 2.49017C6.10483 2.1015 6.05224 1.62453 6.03081 1.43017L5.99172 1.07683H1.14324V2.42549Z" fill="#AFAFAF"/>
<path d="M0 2.34848C6.04413e-08 1.53721 0.000550801 1.09529 0.0215482 0.841522C0.0320682 0.714395 0.0500915 0.598992 0.0928801 0.496428C0.141987 0.37889 0.212313 0.307443 0.258578 0.26165L0.410159 0.111024L0.522358 0H7.15846L7.27066 0.111024L7.43041 0.268721C7.55101 0.388037 7.62499 0.513768 7.67041 0.710697C7.70853 0.876071 7.73033 1.10948 7.7566 1.4518C7.96666 4.18924 8.52898 6.48931 9.45668 8.44917C10.3195 10.2718 11.6835 11.8589 13.0924 12.7169C13.1447 12.7488 13.1973 12.7778 13.2469 12.8074C13.2529 12.4967 13.2594 12.0756 13.264 11.5678C13.2745 10.4261 13.2811 8.85042 13.2811 7.11688C13.2811 3.77392 13.2794 2.11176 13.319 1.27431C13.3381 0.871744 13.3673 0.603948 13.4379 0.42854C13.4802 0.323428 13.5457 0.228311 13.6482 0.15699C13.7316 0.0990101 13.8299 0.0693356 13.8458 0.0636446C13.9016 0.043779 13.9595 0.0386194 13.9647 0.0381867C13.9862 0.0360208 14.0113 0.0346804 14.036 0.0332366C14.0862 0.0303137 14.1526 0.0271929 14.2315 0.0247507C14.3907 0.0198255 14.612 0.0156931 14.8772 0.0120217C15.408 0.00467439 16.1232 5.75668e-07 16.8953 0C18.2793 0 18.9942 3.49432e-06 19.38 0.0183862C19.5681 0.0273489 19.7145 0.0416018 19.8318 0.0756663C19.9067 0.0974599 19.9648 0.125998 20.0108 0.154868L20.1178 0.236192L20.2798 0.377624L20.4024 0.48582V7.35448C20.7627 7.22533 21.294 6.99053 21.6998 6.76754C23.6399 5.70122 25.2334 3.77119 26.2353 1.21066C26.318 0.999236 26.4063 0.79239 26.4827 0.628667C26.5208 0.547155 26.5579 0.47307 26.5905 0.412982C26.6146 0.368533 26.6588 0.288382 26.7138 0.231242C26.8094 0.132248 26.9256 0.0848815 27.0541 0.0594016C27.1665 0.0371301 27.3177 0.0253697 27.523 0.017679C27.9417 0.00200681 28.6861 0 30.0322 0H33.1151L33.2258 0.103246L33.3975 0.262357C33.4696 0.329433 33.5415 0.411767 33.5944 0.520471C33.647 0.628875 33.6703 0.742374 33.6768 0.860616C33.6889 1.07913 33.6445 1.36826 33.5713 1.76437C33.2077 3.73309 32.2185 5.67291 30.6594 7.5143C30.0538 8.22948 28.4877 9.65776 27.6753 10.2369C27.5825 10.303 27.4956 10.3681 27.4167 10.4264C27.4383 10.4401 27.4595 10.4555 27.4821 10.4695C29.487 11.7143 31.483 13.5745 32.7919 15.4197C33.6758 16.6658 34.1985 17.6606 34.7186 19.0849C34.8718 19.5045 34.9726 19.8149 34.995 20.0544C35.007 20.1831 34.999 20.3107 34.9534 20.4356C34.9072 20.562 34.8324 20.6587 34.7535 20.7368L34.489 20.9985H31.1669C29.7159 20.9985 28.9142 20.9957 28.46 20.9801C28.2358 20.9724 28.0751 20.9613 27.9569 20.9405C27.8256 20.9173 27.7171 20.8774 27.6196 20.799C27.5512 20.7441 27.4988 20.6687 27.4687 20.6237C27.4309 20.567 27.3906 20.4996 27.3513 20.4278C27.2726 20.2835 27.1873 20.1051 27.1121 19.925C26.2185 17.7858 24.5352 15.9886 22.561 15.0427C21.9554 14.7527 20.9527 14.4137 20.4024 14.2981V20.5126L20.2798 20.6201L20.1059 20.7715C20.0668 20.8057 19.9978 20.8681 19.9016 20.9143C19.8005 20.9628 19.6958 20.9828 19.5888 20.9921C19.3955 21.0088 19.0851 20.9967 18.5582 20.9772C17.2472 20.9286 16.2916 20.806 15.0079 20.5218C11.4131 19.726 8.28251 18.0851 5.65454 15.6198C3.43515 13.5376 1.94976 11.2859 0.960752 8.50291C0.238295 6.46966 0 4.92811 0 2.34848ZM1.11828 2.70419V1.03953H6.58409L6.62049 1.36341L6.65839 1.70426C6.67938 1.89214 6.73104 2.35312 6.77282 2.72823C7.02893 5.02604 7.59987 7.12673 8.44466 8.90175C9.64835 11.4306 11.4986 13.2955 13.5939 14.1567C13.9067 14.2852 14.0977 14.3378 14.2188 14.3483C14.3153 14.3567 14.3346 14.3373 14.3503 14.3236L14.3994 14.2804V1.03953H19.354V8.55595L19.3986 8.58919C19.4281 8.61082 19.4443 8.62024 19.4528 8.62454C19.4579 8.62712 19.4602 8.62808 19.4602 8.62808C19.4668 8.62942 19.4984 8.6344 19.6155 8.61959C20.0658 8.56254 20.7833 8.34641 21.4672 8.04962C23.3 7.25411 24.9198 5.83109 26.1119 3.94808C26.4935 3.34512 27.1261 2.0536 27.2807 1.57202L27.4516 1.03953H29.9237C30.7757 1.03953 31.3313 1.04448 31.6743 1.05721C31.8428 1.06346 31.9753 1.07154 32.0704 1.08549C32.114 1.0919 32.1761 1.10355 32.2361 1.12722C32.2655 1.13882 32.3201 1.16267 32.3721 1.20995C32.4301 1.26283 32.4957 1.35601 32.4954 1.48363C32.4953 1.54469 32.4817 1.61355 32.4716 1.66183C32.4596 1.7195 32.4435 1.78808 32.4241 1.86196C32.3852 2.01023 32.3316 2.19314 32.2725 2.38384C32.1552 2.76245 32.0093 3.19083 31.8995 3.45307C30.8447 5.97131 28.7543 8.31329 25.9834 10.1159C25.6963 10.3027 25.575 10.417 25.5316 10.4837C25.5291 10.4875 25.5272 10.4909 25.5257 10.4936C25.5273 10.4969 25.5293 10.5012 25.5324 10.5063C25.5324 10.5063 25.5341 10.5087 25.5376 10.5134C25.5412 10.5182 25.546 10.5243 25.5524 10.5318C25.5655 10.5468 25.5821 10.5645 25.6015 10.5827C25.6428 10.6213 25.6835 10.6511 25.7085 10.6654C27.4203 11.6482 28.4531 12.3845 29.5968 13.4439C31.1538 14.886 32.3586 16.4963 33.1872 18.2483L33.3484 18.6005L33.5691 19.1266C33.5976 19.1989 33.6218 19.2639 33.6397 19.3154C33.6485 19.3408 33.6568 19.3667 33.6635 19.3904C33.6647 19.3948 33.6694 19.4107 33.6739 19.4328L33.6828 19.5127L33.6798 19.5622C33.6654 19.6728 33.602 19.7515 33.5505 19.7956C33.4976 19.8409 33.4431 19.8635 33.4146 19.8741C33.3552 19.896 33.2929 19.9067 33.2474 19.913C33.1484 19.9265 33.0081 19.935 32.8268 19.9413C32.4588 19.9539 31.8613 19.9582 30.941 19.9582H28.3299L28 19.2376C27.4993 18.1448 26.6306 16.9164 25.7397 16.0413C24.2414 14.5695 22.5577 13.6817 20.4641 13.26C20.0422 13.175 19.7625 13.1387 19.5762 13.1384C19.4793 13.1382 19.426 13.1476 19.3993 13.1553C19.3909 13.2042 19.3798 13.2969 19.3726 13.4728C19.355 13.9015 19.354 14.713 19.354 16.3149V19.9582H18.605C17.4964 19.9582 15.2919 19.5839 13.9149 19.1697C6.97721 17.0829 1.97731 11.3954 1.19407 4.67717C1.15125 4.30942 1.11829 3.42292 1.11828 2.70419ZM1.87915 2.70419C1.87916 3.41778 1.91251 4.2711 1.95048 4.59726L1.98838 4.8978C2.84923 11.1907 7.5875 16.5074 14.1438 18.4795C15.4649 18.877 17.5789 19.2307 18.5931 19.2334V16.3149C18.5931 14.7225 18.5941 13.8914 18.6124 13.4446C18.6214 13.2266 18.6349 13.0699 18.6644 12.9545C18.6807 12.8911 18.7048 12.8289 18.7425 12.7692C18.7806 12.7088 18.8228 12.6675 18.848 12.6441L18.9245 12.5818C19.1114 12.4498 19.3453 12.4138 19.5776 12.4142C19.8466 12.4147 20.1903 12.4645 20.6216 12.5514C22.8642 13.0031 24.6835 13.9625 26.2866 15.537C27.2395 16.4732 28.159 17.7739 28.697 18.9477L28.8285 19.2341H30.941C31.8532 19.2341 32.4342 19.2296 32.7874 19.2178C32.745 19.1151 32.6984 18.9992 32.6462 18.8805L32.4939 18.546C31.7076 16.883 30.5603 15.3468 29.0663 13.9629C28.1101 13.0773 27.2378 12.4275 25.9128 11.6349L25.3154 11.2856C25.2266 11.2346 25.1402 11.1663 25.0695 11.1003C25.0178 11.0521 24.9622 10.9934 24.9156 10.9306L24.8726 10.867C24.8081 10.76 24.7603 10.6331 24.7611 10.4893C24.7619 10.3447 24.8119 10.2152 24.8852 10.1025C25.0203 9.89491 25.2625 9.70729 25.5539 9.51769C28.2247 7.78013 30.2043 5.54472 31.1929 3.18435C31.2895 2.95366 31.4275 2.55096 31.5428 2.17877C31.5874 2.03488 31.6256 1.89786 31.658 1.78063C31.6536 1.78046 31.6491 1.7808 31.6446 1.78063C31.3188 1.76855 30.7779 1.76366 29.9237 1.76366H28.0149L28.0082 1.78346C27.8303 2.33723 27.1673 3.68442 26.7636 4.32217C25.503 6.31332 23.7726 7.84486 21.7822 8.7087C21.062 9.02121 20.2687 9.26733 19.7158 9.33736C19.5832 9.35412 19.4419 9.36488 19.3005 9.33595C19.1477 9.30466 19.0325 9.23536 18.9334 9.16269L18.5931 8.91307V1.76366H15.1603V14.5994L15.0369 14.7068L14.8653 14.8575C14.6653 15.0321 14.4217 15.0932 14.1497 15.0696C13.9021 15.0481 13.6186 14.9555 13.2923 14.8214C10.9833 13.8725 9.01396 11.8518 7.75215 9.20088C6.86844 7.34425 6.27964 5.16633 6.0164 2.8046C5.97462 2.42951 5.92295 1.9691 5.90197 1.78134L5.89974 1.76366H1.87915V2.70419ZM0.760874 2.34848C0.760874 4.8655 0.990568 6.32643 1.6815 8.27096C2.63205 10.9457 4.05307 13.1006 6.18879 15.1043C8.71682 17.4759 11.7221 19.0512 15.1803 19.8168C16.4173 20.0906 17.3251 20.207 18.5879 20.2538C19.1477 20.2745 19.3903 20.2821 19.5204 20.2708C19.5745 20.2661 19.5746 20.2598 19.5591 20.2673C19.5482 20.2725 19.5455 20.2787 19.5918 20.2383L19.6415 20.1944V13.441L20.3801 13.5549C20.9797 13.6472 22.1943 14.0563 22.9028 14.3957C25.0579 15.4281 26.8633 17.3686 27.8195 19.6577C27.886 19.8171 27.9608 19.9733 28.0268 20.094C28.0579 20.151 28.0855 20.1963 28.107 20.2291C28.1682 20.2388 28.2792 20.2495 28.4874 20.2566C28.9243 20.2717 29.7086 20.2743 31.1669 20.2743H34.165L34.2051 20.2347L34.2349 20.198C34.2349 20.198 34.2426 20.1766 34.2371 20.118C34.2244 19.9828 34.1589 19.7574 34.0001 19.3225C33.5016 17.9573 33.008 17.0189 32.161 15.8249C30.9105 14.0619 28.9887 12.2696 27.0668 11.0763C26.9323 10.9928 26.8074 10.9108 26.7146 10.845C26.6691 10.8128 26.6263 10.7802 26.5919 10.7517C26.5759 10.7384 26.5532 10.7192 26.5318 10.6965C26.5218 10.6859 26.5025 10.6653 26.4842 10.6371C26.4773 10.6266 26.4157 10.5373 26.4263 10.4115C26.4328 10.3346 26.4643 10.2798 26.4731 10.2645C26.4861 10.2417 26.499 10.2243 26.5065 10.215C26.5218 10.1958 26.5372 10.181 26.5459 10.1725C26.5646 10.154 26.5857 10.1355 26.6046 10.1195C26.6439 10.0861 26.6963 10.044 26.7562 9.99785C26.877 9.90476 27.0409 9.78398 27.2191 9.657C27.9837 9.11196 29.5036 7.72514 30.0672 7.0596C31.5618 5.29437 32.4844 3.46513 32.8216 1.6392C32.8979 1.2259 32.9234 1.01975 32.9167 0.898095C32.9139 0.84755 32.9063 0.829229 32.9041 0.824551C32.9022 0.820621 32.8956 0.808697 32.8654 0.780706L32.8045 0.724134H30.0322C28.6783 0.724134 27.9533 0.726147 27.5534 0.741105C27.4046 0.746677 27.3134 0.754776 27.2577 0.761613C27.2358 0.802997 27.2088 0.857442 27.1782 0.922846C27.1089 1.07115 27.0266 1.26373 26.9486 1.46312C25.9009 4.14105 24.2089 6.22488 22.0802 7.39479C21.5252 7.69979 20.704 8.05305 20.3036 8.14509L20.1119 8.18893L19.6415 8.29713V0.803336L19.6029 0.770099L19.5999 0.766563C19.5725 0.760378 19.504 0.749531 19.3421 0.741813C18.9809 0.724602 18.2931 0.724134 16.8953 0.724134C16.1258 0.724134 15.4138 0.728869 14.8876 0.736155C14.6244 0.7398 14.4092 0.74417 14.2567 0.748884C14.2068 0.750428 14.1646 0.752302 14.1304 0.753834C14.1134 0.83808 14.0936 1.00041 14.0791 1.30683C14.0405 2.12304 14.042 3.76071 14.042 7.11688C14.042 8.85184 14.0354 10.4298 14.0249 11.5741C14.0197 12.146 14.0133 12.6109 14.0063 12.9333C14.0029 13.0938 13.9991 13.2211 13.9952 13.3095C13.9933 13.3529 13.9911 13.3917 13.9885 13.4212C13.9873 13.4344 13.9855 13.4548 13.9818 13.4757C13.9804 13.4835 13.9759 13.5087 13.9655 13.5379C13.961 13.5503 13.9478 13.5865 13.9194 13.6263C13.9023 13.6502 13.8023 13.7854 13.6036 13.7854C13.533 13.7854 13.4775 13.7658 13.4706 13.7635C13.4513 13.7572 13.4345 13.75 13.423 13.7451C13.3994 13.735 13.3741 13.7228 13.351 13.7112C13.3035 13.6872 13.2432 13.6545 13.1763 13.6171C13.0415 13.5416 12.8662 13.4392 12.6822 13.3272C11.1236 12.378 9.67323 10.6685 8.76342 8.74688C7.79099 6.69251 7.21215 4.30568 6.99722 1.50484C6.96983 1.148 6.95143 0.970781 6.92737 0.866273C6.91059 0.79349 6.90075 0.789305 6.88205 0.770806L6.83449 0.724134H0.846324L0.806199 0.763027C0.802651 0.76654 0.800303 0.769893 0.798026 0.772221C0.794349 0.786677 0.786459 0.82249 0.780193 0.898095C0.762208 1.11544 0.760874 1.51858 0.760874 2.34848Z" fill="#AFAFAF"/>
</svg>
