<svg width="432" height="94" viewBox="0 0 432 94" fill="none" xmlns="http://www.w3.org/2000/svg">
<path d="M104.593 58L99.2955 35.8096H103.882L107.227 51.0522L111.284 35.8096H116.612L120.502 51.3096L123.908 35.8096H128.419L123.03 58H118.277L113.857 41.4102L109.452 58H104.593ZM130.583 58V35.8096H135.064V58H130.583ZM138.212 50.7798L142.571 50.356C142.834 51.8192 143.364 52.8939 144.161 53.5801C144.968 54.2663 146.053 54.6094 147.415 54.6094C148.858 54.6094 149.943 54.3066 150.669 53.7012C151.406 53.0856 151.774 52.3691 151.774 51.5518C151.774 51.027 151.618 50.583 151.305 50.2197C151.003 49.8464 150.468 49.5234 149.701 49.251C149.176 49.0693 147.98 48.7464 146.113 48.2822C143.712 47.6868 142.026 46.9552 141.058 46.0874C139.695 44.8664 139.014 43.3779 139.014 41.6221C139.014 40.4919 139.332 39.4373 139.968 38.4585C140.614 37.4696 141.537 36.7178 142.738 36.2031C143.949 35.6885 145.407 35.4312 147.112 35.4312C149.898 35.4312 151.991 36.0417 153.394 37.2627C154.807 38.4837 155.549 40.1134 155.619 42.1519L151.139 42.3486C150.947 41.2083 150.533 40.391 149.898 39.8965C149.272 39.3919 148.328 39.1396 147.067 39.1396C145.765 39.1396 144.746 39.4071 144.009 39.9419C143.535 40.285 143.298 40.7441 143.298 41.3193C143.298 41.8441 143.52 42.2931 143.964 42.6665C144.529 43.1408 145.901 43.6353 148.081 44.1499C150.261 44.6646 151.87 45.1994 152.91 45.7544C153.959 46.2993 154.777 47.0511 155.362 48.0098C155.957 48.9583 156.255 50.134 156.255 51.5366C156.255 52.8081 155.902 53.9989 155.195 55.1089C154.489 56.2189 153.49 57.0464 152.198 57.5913C150.907 58.1261 149.297 58.3936 147.37 58.3936C144.564 58.3936 142.41 57.7477 140.906 56.4561C139.403 55.1543 138.505 53.2622 138.212 50.7798ZM160.039 58V35.8096H164.52V44.5435H173.299V35.8096H177.779V58H173.299V48.2974H164.52V58H160.039ZM182.547 58V35.9912H187.028V54.2612H198.169V58H182.547ZM201.241 58V35.8096H205.722V58H201.241ZM208.87 50.7798L213.23 50.356C213.492 51.8192 214.022 52.8939 214.819 53.5801C215.626 54.2663 216.711 54.6094 218.073 54.6094C219.516 54.6094 220.601 54.3066 221.328 53.7012C222.064 53.0856 222.433 52.3691 222.433 51.5518C222.433 51.027 222.276 50.583 221.963 50.2197C221.661 49.8464 221.126 49.5234 220.359 49.251C219.834 49.0693 218.638 48.7464 216.772 48.2822C214.37 47.6868 212.685 46.9552 211.716 46.0874C210.354 44.8664 209.672 43.3779 209.672 41.6221C209.672 40.4919 209.99 39.4373 210.626 38.4585C211.272 37.4696 212.195 36.7178 213.396 36.2031C214.607 35.6885 216.065 35.4312 217.771 35.4312C220.556 35.4312 222.65 36.0417 224.052 37.2627C225.465 38.4837 226.207 40.1134 226.277 42.1519L221.797 42.3486C221.605 41.2083 221.191 40.391 220.556 39.8965C219.93 39.3919 218.987 39.1396 217.725 39.1396C216.423 39.1396 215.404 39.4071 214.668 39.9419C214.193 40.285 213.956 40.7441 213.956 41.3193C213.956 41.8441 214.178 42.2931 214.622 42.6665C215.187 43.1408 216.56 43.6353 218.739 44.1499C220.919 44.6646 222.529 45.1994 223.568 45.7544C224.617 46.2993 225.435 47.0511 226.02 48.0098C226.615 48.9583 226.913 50.134 226.913 51.5366C226.913 52.8081 226.56 53.9989 225.854 55.1089C225.147 56.2189 224.148 57.0464 222.857 57.5913C221.565 58.1261 219.955 58.3936 218.028 58.3936C215.223 58.3936 213.068 57.7477 211.565 56.4561C210.061 55.1543 209.163 53.2622 208.87 50.7798ZM235.677 58V39.5635H229.093V35.8096H246.727V39.5635H240.158V58H235.677ZM258.307 58V35.8096H262.666L271.748 50.6284V35.8096H275.911V58H271.415L262.469 43.5293V58H258.307ZM279.755 47.041C279.755 44.7806 280.093 42.8835 280.77 41.3496C281.274 40.2194 281.96 39.2052 282.828 38.3071C283.706 37.409 284.665 36.743 285.704 36.3091C287.087 35.7238 288.681 35.4312 290.487 35.4312C293.757 35.4312 296.371 36.4453 298.328 38.4736C300.296 40.502 301.28 43.3224 301.28 46.9351C301.28 50.5174 300.306 53.3228 298.358 55.3511C296.411 57.3693 293.807 58.3784 290.548 58.3784C287.248 58.3784 284.624 57.3743 282.677 55.3662C280.729 53.348 279.755 50.5729 279.755 47.041ZM284.372 46.8896C284.372 49.4023 284.952 51.3096 286.113 52.6113C287.273 53.903 288.747 54.5488 290.533 54.5488C292.319 54.5488 293.782 53.908 294.922 52.6265C296.073 51.3348 296.648 49.4023 296.648 46.8291C296.648 44.2861 296.088 42.389 294.968 41.1377C293.858 39.8864 292.379 39.2607 290.533 39.2607C288.686 39.2607 287.198 39.8965 286.067 41.168C284.937 42.4294 284.372 44.3366 284.372 46.8896ZM307.94 58L302.642 35.8096H307.229L310.574 51.0522L314.63 35.8096H319.959L323.849 51.3096L327.254 35.8096H331.765L326.377 58H321.624L317.204 41.4102L312.799 58H307.94Z" fill="#D40301"/>
<path fill-rule="evenodd" clip-rule="evenodd" d="M374 7H384.641L384.709 7.02539L392.968 13.9551L403.95 23.0186L403.932 23.1953C403.301 23.5232 402.837 24.2253 402.508 25.1729C402.18 26.1177 401.992 27.2894 401.904 28.5293C401.74 30.8534 401.926 33.3993 402.167 35.1016L402.216 35.4307L402.217 35.4385C402.218 35.4495 402.249 35.8076 402.335 36.3369C402.422 36.8753 402.566 37.5888 402.792 38.293C403.018 38.9987 403.325 39.687 403.733 40.1816C404.14 40.6738 404.639 40.9657 405.259 40.9082C407.685 40.6829 409.153 39.7695 410.001 38.54C410.852 37.3059 411.093 35.7355 411.027 34.1787C410.897 31.0679 409.549 28.0631 409.543 28.0498L409.709 27.9238L414.308 31.7891L418.133 34.9609L418.119 35.1348C414.722 37.1517 412.359 39.4319 410.846 41.208C409.647 42.6146 408.982 43.7051 408.757 44.0977C409.746 44.0881 414.552 44.0469 418.958 44.0996H421.689L421.82 44.0977C422.463 44.0818 422.961 43.9486 423.334 43.7324C423.73 43.5026 423.991 43.1759 424.136 42.7861C424.427 42.0013 424.253 40.9435 423.727 39.8896L423.891 39.7598L431.248 45.8369L431.18 46.0264L384 46.0537V47.9453L431.18 47.9736L431.248 48.1631L423.891 54.2402L423.727 54.1104C424.253 53.0565 424.427 51.9987 424.136 51.2139C423.991 50.8241 423.73 50.4974 423.334 50.2676C422.961 50.0514 422.463 49.9182 421.82 49.9023L421.689 49.9004H418.958C414.552 49.9531 409.746 49.9119 408.757 49.9023C408.982 50.2949 409.647 51.3854 410.846 52.792C412.359 54.5681 414.722 56.8483 418.119 58.8652L418.133 59.0391L414.308 62.2109L409.709 66.0762L409.543 65.9502C409.549 65.9369 410.897 62.9321 411.027 59.8213C411.093 58.2645 410.852 56.6941 410.001 55.46C409.153 54.2305 407.685 53.3171 405.259 53.0918C404.639 53.0343 404.14 53.3262 403.733 53.8184C403.325 54.313 403.018 55.0013 402.792 55.707C402.566 56.4112 402.422 57.1247 402.335 57.6631C402.249 58.1924 402.218 58.5505 402.217 58.5615L402.216 58.5693L402.167 58.8984C401.926 60.6007 401.74 63.1466 401.904 65.4707C401.992 66.7106 402.18 67.8823 402.508 68.8271C402.837 69.7747 403.301 70.4768 403.932 70.8047L403.95 70.9814L392.968 80.0449L384.709 86.9746L384.641 87H374V94H56V87H46.6074L46.5391 86.9746L38.2803 80.0449L27.2969 70.9814L27.3154 70.8047C27.946 70.4768 28.4111 69.7747 28.7402 68.8271C29.0683 67.8823 29.2551 66.7105 29.3428 65.4707C29.5071 63.1466 29.3214 60.6007 29.0801 58.8984L29.0312 58.5693L29.0303 58.5615C29.0292 58.5496 28.9989 58.1916 28.9131 57.6631C28.8256 57.1246 28.6811 56.4113 28.4551 55.707C28.2285 55.0012 27.922 54.313 27.5137 53.8184C27.1073 53.3261 26.6085 53.0342 25.9883 53.0918C23.562 53.3172 22.0944 54.2304 21.2461 55.46C20.3947 56.6941 20.1554 58.2645 20.2207 59.8213C20.351 62.9235 21.6908 65.9205 21.7041 65.9502L21.5381 66.0762L16.9404 62.2109L13.1152 59.0391L13.1289 58.8652C16.5258 56.8483 18.888 54.5681 20.4014 52.792C21.5998 51.3855 22.2651 50.2951 22.4902 49.9023C21.5006 49.9119 16.6949 49.9531 12.2891 49.9004H9.55762L9.42773 49.9023C8.7851 49.9182 8.28682 50.0515 7.91406 50.2676C7.51788 50.4974 7.25721 50.8241 7.1123 51.2139C6.82064 51.9987 6.99366 53.0565 7.52051 54.1104L7.35742 54.2402L0 48.1631L0.0683594 47.9736L47 47.9453V46.0537L0.0683594 46.0264L0 45.8369L7.35742 39.7598L7.52051 39.8896C6.99366 40.9435 6.82064 42.0013 7.1123 42.7861C7.25721 43.1759 7.51788 43.5026 7.91406 43.7324C8.28682 43.9485 8.7851 44.0818 9.42773 44.0977L9.55762 44.0996H12.2891C16.6949 44.0469 21.5006 44.0881 22.4902 44.0977C22.2651 43.7049 21.5998 42.6145 20.4014 41.208C18.888 39.4319 16.5258 37.1517 13.1289 35.1348L13.1152 34.9609L16.9404 31.7891L21.5381 27.9238L21.7041 28.0498C21.6908 28.0795 20.351 31.0765 20.2207 34.1787C20.1554 35.7355 20.3947 37.3059 21.2461 38.54C22.0944 39.7696 23.562 40.6828 25.9883 40.9082C26.6085 40.9658 27.1073 40.6739 27.5137 40.1816C27.922 39.687 28.2285 38.9988 28.4551 38.293C28.6811 37.5887 28.8256 36.8754 28.9131 36.3369C28.9989 35.8084 29.0292 35.4504 29.0303 35.4385L29.0312 35.4307L29.0801 35.1016C29.3214 33.3993 29.5071 30.8534 29.3428 28.5293C29.2551 27.2895 29.0683 26.1177 28.7402 25.1729C28.4111 24.2253 27.946 23.5232 27.3154 23.1953L27.2969 23.0186L38.2803 13.9551L46.5391 7.02539L46.6074 7H56V0H374V7ZM59 91H371V87H59V91ZM393.226 49.8936C391.513 50.0539 389.769 50.1334 388.105 50.7139C386.645 51.2232 385.246 52.1193 384 53.8037V84.3506C391.113 78.0337 395.896 70.0499 398.063 63.3486C399.294 59.5449 399.678 56.1661 399.179 53.7461C398.929 52.5373 398.46 51.5746 397.774 50.915C397.09 50.2573 396.181 49.8936 395.032 49.8936H393.226ZM36.2148 49.8936C35.0667 49.8936 34.1578 50.2575 33.4736 50.915C32.7876 51.5746 32.3189 52.5374 32.0693 53.7461C31.5698 56.1661 31.9544 59.5449 33.1846 63.3486C35.3268 69.9721 40.0235 77.8494 47 84.1309V53.4824C45.8172 52.0037 44.5067 51.1898 43.1426 50.7139C41.4786 50.1334 39.7346 50.0539 38.0225 49.8936H36.2148ZM50 84H381V10H50V84ZM30.9326 62.1963C30.9094 62.3008 30.8995 62.4828 30.8984 62.7363C30.8974 62.9869 30.9045 63.2971 30.9131 63.6523C30.9216 64.007 30.931 64.4057 30.9336 64.8311C30.9437 66.527 30.8451 68.6731 30.127 70.1982C30.108 70.2387 30.1048 70.3085 30.1475 70.4219C30.1894 70.5332 30.2697 70.6692 30.3857 70.8271C30.6175 71.1427 30.9807 71.5282 31.4316 71.9512C32.3324 72.796 33.5674 73.7795 34.749 74.6455C35.931 75.5118 37.0546 76.2564 37.7344 76.624C37.9043 76.7159 38.0438 76.7831 38.1475 76.8223C38.173 76.8319 38.1961 76.8398 38.2158 76.8457C38.17 76.7717 38.0842 76.6629 37.9492 76.5156C35.7739 74.1425 34.1354 70.6331 32.9756 67.6768C32.3952 66.1973 31.9324 64.8524 31.583 63.8545C31.4081 63.3549 31.2624 62.9431 31.1436 62.6445C31.0841 62.4951 31.0326 62.3758 30.9883 62.2891C30.9677 62.2487 30.9484 62.2174 30.9326 62.1934V62.1963ZM400.26 62.2891C400.216 62.3758 400.164 62.4952 400.104 62.6445C399.986 62.9431 399.839 63.3549 399.664 63.8545C399.315 64.8524 398.853 66.1973 398.272 67.6768C397.113 70.6331 395.474 74.1425 393.299 76.5156C393.164 76.6629 393.078 76.7717 393.032 76.8457C393.052 76.8399 393.074 76.8318 393.1 76.8223C393.203 76.7831 393.343 76.7159 393.513 76.624C394.192 76.2564 395.317 75.512 396.499 74.6455C397.68 73.7796 398.915 72.7959 399.815 71.9512C400.266 71.5282 400.631 71.1427 400.862 70.8271C400.978 70.6693 401.058 70.5331 401.1 70.4219C401.142 70.3082 401.139 70.2387 401.12 70.1982C400.402 68.6731 400.304 66.527 400.314 64.8311C400.317 64.4057 400.326 64.007 400.335 63.6523C400.344 63.2971 400.351 62.9869 400.35 62.7363C400.349 62.4828 400.339 62.3008 400.315 62.1963L400.314 62.1934C400.299 62.2173 400.28 62.2489 400.26 62.2891ZM18.8398 56.5645C18.5702 56.7062 18.1454 57.008 17.6895 57.3623C17.2356 57.715 16.7566 58.1145 16.3799 58.4463C16.1917 58.612 16.0295 58.7602 15.9092 58.877C15.8489 58.9354 15.7991 58.9857 15.7627 59.0254C15.7378 59.0526 15.7226 59.0731 15.7129 59.0859C15.7146 59.0912 15.7168 59.0987 15.7207 59.1074C15.7371 59.1441 15.7685 59.1953 15.8154 59.2607C15.9088 59.3911 16.0541 59.5624 16.2354 59.7588C16.597 60.1508 17.0931 60.635 17.583 61.083C18.0735 61.5315 18.5548 61.9412 18.8848 62.1846C18.9644 62.2433 19.0345 62.2916 19.0928 62.3281C18.9966 62.0902 18.9078 61.7282 18.834 61.3057C18.7478 60.812 18.679 60.2235 18.6436 59.626C18.6081 59.0285 18.6049 58.4195 18.6494 57.8857C18.6936 57.3555 18.7865 56.8863 18.9492 56.5771C18.9658 56.5457 18.9772 56.5196 18.9854 56.499C18.9477 56.5119 18.8991 56.5333 18.8398 56.5645ZM412.299 56.5771C412.461 56.8863 412.553 57.3556 412.598 57.8857C412.642 58.4196 412.639 59.0285 412.604 59.626C412.568 60.2235 412.5 60.812 412.414 61.3057C412.34 61.7282 412.251 62.0902 412.155 62.3281C412.214 62.2916 412.284 62.2433 412.363 62.1846C412.693 61.9413 413.174 61.5315 413.664 61.083C414.154 60.6349 414.651 60.1509 415.013 59.7588C415.194 59.5624 415.339 59.3911 415.433 59.2607C415.48 59.1953 415.511 59.1441 415.527 59.1074C415.531 59.0987 415.533 59.0912 415.535 59.0859C415.525 59.0731 415.509 59.0528 415.484 59.0254C415.448 58.9857 415.399 58.9354 415.339 58.877C415.218 58.7601 415.056 58.6122 414.867 58.4463C414.49 58.1145 414.011 57.7149 413.558 57.3623C413.102 57.0082 412.678 56.7062 412.408 56.5645C412.349 56.5332 412.299 56.5119 412.262 56.499C412.27 56.5197 412.282 56.5455 412.299 56.5771ZM24.8271 49.9385C24.6153 49.9409 24.4225 49.9552 24.2617 49.9814C24.0988 50.0081 23.9767 50.0466 23.9004 50.0918C23.4101 50.3827 23.0173 50.9456 22.8564 51.4355C22.7756 51.6816 22.7591 51.8926 22.8018 52.0342C22.8224 52.1026 22.8565 52.1512 22.9004 52.1836C22.9444 52.216 23.0075 52.2392 23.0996 52.2393C25.8574 52.2393 26.9852 51.6029 27.5957 50.6875C27.6148 50.6589 27.6194 50.6363 27.6191 50.6201C27.6187 50.6036 27.6135 50.5826 27.5957 50.5566C27.5571 50.5006 27.4727 50.4362 27.3379 50.3701C27.0717 50.2398 26.6595 50.1287 26.2012 50.0518C25.7446 49.9751 25.251 49.9336 24.8271 49.9385ZM406.421 49.9385C405.997 49.9336 405.503 49.9752 405.047 50.0518C404.588 50.1287 404.175 50.2398 403.909 50.3701C403.775 50.4361 403.691 50.5006 403.652 50.5566C403.635 50.5826 403.628 50.6036 403.628 50.6201C403.628 50.6363 403.632 50.6589 403.651 50.6875C404.262 51.603 405.39 52.2392 408.147 52.2393C408.24 52.2393 408.304 52.216 408.348 52.1836C408.391 52.1512 408.425 52.1025 408.445 52.0342C408.488 51.8926 408.471 51.6817 408.391 51.4355C408.23 50.9455 407.837 50.3826 407.347 50.0918C407.27 50.0466 407.149 50.0081 406.986 49.9814C406.826 49.9551 406.633 49.9409 406.421 49.9385ZM47 9.86816C40.0232 16.1497 35.3268 24.0277 33.1846 30.6514C31.9544 34.4551 31.5698 37.8339 32.0693 40.2539C32.3189 41.4626 32.7876 42.4254 33.4736 43.085C34.1578 43.7425 35.0667 44.1064 36.2148 44.1064H38.0225C39.7346 43.9461 41.4786 43.8666 43.1426 43.2861C44.5069 42.8101 45.817 41.9957 47 40.5166V9.86816ZM384 40.1953C385.246 41.8802 386.645 42.7767 388.105 43.2861C389.769 43.8666 391.513 43.9461 393.226 44.1064H395.032C396.181 44.1064 397.09 43.7427 397.774 43.085C398.46 42.4254 398.929 41.4627 399.179 40.2539C399.678 37.8339 399.294 34.4551 398.063 30.6514C395.896 23.9499 391.113 15.9654 384 9.64844V40.1953ZM23.0996 41.7607C23.0075 41.7608 22.9444 41.784 22.9004 41.8164C22.8565 41.8488 22.8224 41.8974 22.8018 41.9658C22.7591 42.1074 22.7756 42.3184 22.8564 42.5645C23.0173 43.0544 23.4101 43.6173 23.9004 43.9082C23.9767 43.9534 24.0988 43.9919 24.2617 44.0186C24.4225 44.0448 24.6153 44.0591 24.8271 44.0615C25.251 44.0664 25.7446 44.0249 26.2012 43.9482C26.6595 43.8713 27.0717 43.7602 27.3379 43.6299C27.4727 43.5638 27.5571 43.4994 27.5957 43.4434C27.6135 43.4174 27.6187 43.3964 27.6191 43.3799C27.6194 43.3637 27.6148 43.3411 27.5957 43.3125C26.9852 42.3971 25.8574 41.7607 23.0996 41.7607ZM408.147 41.7607C405.39 41.7608 404.262 42.397 403.651 43.3125C403.632 43.3411 403.628 43.3637 403.628 43.3799C403.628 43.3964 403.635 43.4174 403.652 43.4434C403.691 43.4994 403.775 43.5639 403.909 43.6299C404.175 43.7602 404.588 43.8713 405.047 43.9482C405.503 44.0248 405.997 44.0664 406.421 44.0615C406.633 44.0591 406.826 44.0449 406.986 44.0186C407.149 43.9919 407.27 43.9534 407.347 43.9082C407.837 43.6174 408.23 43.0545 408.391 42.5645C408.471 42.3183 408.488 42.1074 408.445 41.9658C408.425 41.8975 408.391 41.8488 408.348 41.8164C408.304 41.784 408.24 41.7607 408.147 41.7607ZM18.8848 31.8154C18.5548 32.0588 18.0735 32.4685 17.583 32.917C17.0931 33.365 16.597 33.8492 16.2354 34.2412C16.0541 34.4376 15.9088 34.6089 15.8154 34.7393C15.7685 34.8047 15.7371 34.8559 15.7207 34.8926C15.7168 34.9013 15.7146 34.9088 15.7129 34.9141C15.7226 34.9269 15.7378 34.9474 15.7627 34.9746C15.7991 35.0143 15.8489 35.0646 15.9092 35.123C16.0295 35.2398 16.1917 35.388 16.3799 35.5537C16.7566 35.8855 17.2356 36.285 17.6895 36.6377C18.1454 36.992 18.5702 37.2938 18.8398 37.4355C18.8991 37.4667 18.9477 37.4881 18.9854 37.501C18.9772 37.4804 18.9658 37.4543 18.9492 37.4229C18.7865 37.1137 18.6936 36.6445 18.6494 36.1143C18.6049 35.5805 18.6081 34.9715 18.6436 34.374C18.679 33.7765 18.7478 33.188 18.834 32.6943C18.9078 32.2718 18.9966 31.9098 19.0928 31.6719C19.0345 31.7084 18.9644 31.7567 18.8848 31.8154ZM412.155 31.6719C412.251 31.9098 412.34 32.2718 412.414 32.6943C412.5 33.188 412.568 33.7765 412.604 34.374C412.639 34.9715 412.642 35.5804 412.598 36.1143C412.553 36.6444 412.461 37.1137 412.299 37.4229C412.282 37.4545 412.27 37.4803 412.262 37.501C412.299 37.4881 412.349 37.4668 412.408 37.4355C412.678 37.2938 413.102 36.9918 413.558 36.6377C414.011 36.2851 414.49 35.8855 414.867 35.5537C415.056 35.3878 415.218 35.2399 415.339 35.123C415.399 35.0646 415.448 35.0143 415.484 34.9746C415.509 34.9472 415.525 34.9269 415.535 34.9141C415.533 34.9088 415.531 34.9013 415.527 34.8926C415.511 34.8559 415.48 34.8047 415.433 34.7393C415.339 34.6089 415.194 34.4376 415.013 34.2412C414.651 33.8491 414.154 33.3651 413.664 32.917C413.174 32.4685 412.693 32.0587 412.363 31.8154C412.284 31.7567 412.214 31.7084 412.155 31.6719ZM38.1475 17.1777C38.0438 17.2169 37.9043 17.2841 37.7344 17.376C37.0546 17.7436 35.931 18.4882 34.749 19.3545C33.5674 20.2205 32.3324 21.204 31.4316 22.0488C30.9807 22.4718 30.6175 22.8573 30.3857 23.1729C30.2697 23.3308 30.1894 23.4668 30.1475 23.5781C30.1048 23.6915 30.108 23.7613 30.127 23.8018C30.8451 25.3269 30.9437 27.473 30.9336 29.1689C30.931 29.5943 30.9216 29.993 30.9131 30.3477C30.9045 30.7029 30.8974 31.0131 30.8984 31.2637C30.8995 31.5172 30.9094 31.6992 30.9326 31.8037V31.8066C30.9484 31.7826 30.9677 31.7513 30.9883 31.7109C31.0326 31.6242 31.0841 31.5049 31.1436 31.3555C31.2624 31.0569 31.4081 30.6451 31.583 30.1455C31.9324 29.1476 32.3952 27.8028 32.9756 26.3232C34.1354 23.3669 35.7739 19.8575 37.9492 17.4844C38.0842 17.3371 38.17 17.2283 38.2158 17.1543C38.1961 17.1602 38.173 17.1681 38.1475 17.1777ZM393.032 17.1543C393.078 17.2283 393.164 17.3371 393.299 17.4844C395.474 19.8575 397.113 23.3669 398.272 26.3232C398.853 27.8027 399.315 29.1476 399.664 30.1455C399.839 30.6451 399.986 31.0569 400.104 31.3555C400.164 31.5048 400.216 31.6242 400.26 31.7109C400.28 31.7511 400.299 31.7827 400.314 31.8066L400.315 31.8037C400.339 31.6992 400.349 31.5172 400.35 31.2637C400.351 31.0131 400.344 30.7029 400.335 30.3477C400.326 29.993 400.317 29.5943 400.314 29.1689C400.304 27.473 400.402 25.3269 401.12 23.8018C401.139 23.7613 401.142 23.6918 401.1 23.5781C401.058 23.4668 400.978 23.3307 400.862 23.1729C400.631 22.8573 400.266 22.4718 399.815 22.0488C398.915 21.2041 397.68 20.2204 396.499 19.3545C395.317 18.488 394.192 17.7436 393.513 17.376C393.343 17.2841 393.203 17.2169 393.1 17.1777C393.074 17.1681 393.052 17.1601 393.032 17.1543ZM59 7H371V3H59V7Z" fill="#D40301"/>
</svg>
