<svg width="24" height="22" viewBox="0 0 24 22" fill="none" xmlns="http://www.w3.org/2000/svg">
<path fill-rule="evenodd" clip-rule="evenodd" d="M21.5514 0.137832C21.144 0.285131 18.6316 1.35464 14.1654 3.28208C13.1987 3.69926 11.9584 4.23283 11.4091 4.46773C10.8599 4.7027 10.0869 5.03416 9.69144 5.20446C9.29597 5.37468 7.3366 6.21688 5.33728 7.07604C3.33796 7.93512 1.48189 8.74526 1.21265 8.87624C-0.307787 9.61616 -0.418279 11.2359 0.993348 12.0927C1.21505 12.2272 2.42087 12.6842 3.67295 13.1081L5.94942 13.8788L6.81922 16.7783C7.74501 19.8645 7.99636 20.5049 8.39526 20.7949C8.72258 21.0329 9.51896 21.0977 9.86569 20.9147C9.99719 20.8453 10.7129 20.2211 11.456 19.5276L12.8073 18.2668L13.1404 18.5237C13.3237 18.665 13.7551 19.0032 14.0991 19.2753C17.6512 22.0842 17.5818 22.0415 18.5127 21.9848C19.4334 21.9286 19.9514 21.5909 20.3547 20.7839C20.437 20.6192 20.6523 19.6974 20.8332 18.7354C21.1537 17.0308 21.242 16.5673 21.9895 12.6636C22.6766 9.07607 23.5657 4.41806 23.8073 3.1413C24.0889 1.65315 24.0724 1.32169 23.6881 0.743257C23.2302 0.053988 22.4192 -0.175768 21.5514 0.137832ZM19.9976 2.84442C18.8552 3.3324 17.4171 3.94998 16.8019 4.21685C15.6969 4.69626 10.3609 6.98983 7.49439 8.21756C4.5155 9.49333 2.34274 10.4345 2.23696 10.495C2.17041 10.533 2.97229 10.8492 4.3121 11.3131C5.51313 11.7291 6.7144 12.1457 6.98164 12.2391L7.46747 12.4088L10.0975 10.7481C13.954 8.31282 15.5856 7.28084 16.4823 6.70975C18.5229 5.41032 18.8736 5.20079 19.0086 5.20079C19.0881 5.20079 19.1919 5.27469 19.2392 5.36498C19.3487 5.57369 19.3471 5.57532 16.1628 8.592C14.8006 9.88246 13.397 11.2164 13.0437 11.5562C11.6305 12.9159 10.3442 14.1334 10.2344 14.2154C10.1592 14.2715 10.05 14.7454 9.92385 15.5626C9.48244 18.4238 9.42892 18.7812 9.4401 18.7942C9.44649 18.8016 10.1805 18.1282 11.0713 17.2976L12.6908 15.7876L14.0673 16.8563C14.8243 17.444 15.7134 18.1375 16.0429 18.3973C18.3659 20.2286 18.4511 20.2809 18.6519 20.0005C18.7109 19.918 18.7593 19.7968 18.7593 19.7312C18.7593 19.627 19.6863 14.7208 20.7959 8.95259C21.8496 3.4744 22.1251 2.00345 22.1012 1.98151C22.0867 1.96814 21.1401 2.35645 19.9976 2.84442Z" fill="#AFAFAF"/>
</svg>
