<svg width="24" height="21" viewBox="0 0 24 21" fill="none" xmlns="http://www.w3.org/2000/svg">
<path fill-rule="evenodd" clip-rule="evenodd" d="M0.218133 0.165192C0.288791 0.256046 2.32236 2.84752 4.73725 5.92401C7.15213 9.00045 9.12794 11.534 9.12794 11.554C9.12794 11.5741 7.14194 13.633 4.71461 16.1293C2.28728 18.6257 0.233476 20.7427 0.150642 20.8338L0 20.9995L1.3049 20.9972L2.60979 20.9948L6.45695 17.03C8.5729 14.8494 10.3176 13.0701 10.3341 13.076C10.3506 13.082 11.7576 14.8624 13.4607 17.0324L16.5573 20.9779L20.2786 20.989L24 21L23.4633 20.3206C23.1682 19.9469 21.0177 17.2091 18.6845 14.2365C14.9915 9.53161 14.4498 8.82272 14.501 8.76131C14.5333 8.72251 16.4592 6.73531 18.7809 4.34538L23.002 0H21.695H20.388L16.8475 3.64365C14.9002 5.64765 13.2901 7.2873 13.2696 7.2873C13.249 7.2873 11.944 5.64765 10.3695 3.64365L7.50687 0H3.79832H0.0897616L0.218133 0.165192ZM3.95244 1.84886C3.96086 1.87042 7.02312 5.7802 10.7575 10.5373L17.5472 19.1867L18.8502 19.1875C20.0784 19.1884 20.1505 19.1841 20.1076 19.113C20.0825 19.0715 17.021 15.1664 13.3041 10.4351L6.54621 1.8326L5.24163 1.82118C4.47331 1.81441 3.94339 1.82579 3.95244 1.84886Z" fill="#AFAFAF"/>
</svg>
