<svg width="31" height="22" viewBox="0 0 31 22" fill="none" xmlns="http://www.w3.org/2000/svg">
<path d="M10.6035 1.04492C12.5104 0.987453 18.0772 0.984404 19.9883 1.04004C21.9149 1.09621 23.5123 1.1728 24.7422 1.26562C25.9973 1.36037 26.8026 1.46772 27.1885 1.56836C28.2704 1.85067 29.0701 2.64477 29.3574 3.71289C29.5643 4.48251 29.8043 6.24438 29.918 7.98047C30.0326 9.73139 30.0224 11.8418 29.915 13.7715C29.8066 15.7209 29.6033 17.4056 29.3555 18.3379C29.0897 19.3375 28.2777 20.1455 27.332 20.3916C26.3659 20.6429 24.0593 20.8497 20.4414 20.9648C18.3389 21.0317 11.2252 20.998 9.51172 20.9141C7.73442 20.827 6.35836 20.7345 5.33887 20.6328C4.28932 20.5282 3.70242 20.4204 3.44336 20.333H3.44238C2.93837 20.1626 2.38539 19.7364 2.02539 19.2285L1.88379 19.0068C1.68867 18.6638 1.51054 18.0765 1.3291 16.7578V16.7568C0.812122 12.9987 0.920809 6.93832 1.54102 3.95996C1.77166 2.85266 2.38898 2.1134 3.33105 1.72852C3.43529 1.68593 3.68955 1.6166 4.1377 1.54004C4.56535 1.46698 5.11166 1.39655 5.76074 1.33203C7.05782 1.2031 8.72747 1.10147 10.6035 1.04492ZM12.5156 5.31055C12.0871 5.31069 11.8325 5.56797 11.748 5.66895C11.6548 5.78045 11.6087 5.88624 11.5918 5.92676C11.5543 6.01658 11.5384 6.09212 11.5342 6.1123C11.5227 6.16748 11.5182 6.21453 11.5166 6.23047C11.5123 6.27234 11.5095 6.31614 11.5078 6.34961C11.5042 6.42226 11.5008 6.52042 11.498 6.63574C11.4925 6.86942 11.4883 7.20594 11.4844 7.62305C11.4765 8.45867 11.4717 9.63433 11.4717 11C11.4717 12.3659 11.4765 13.5423 11.4844 14.3779C11.4883 14.7948 11.4925 15.1307 11.498 15.3643C11.5008 15.4796 11.5042 15.5777 11.5078 15.6504C11.5095 15.6839 11.5123 15.7276 11.5166 15.7695C11.5182 15.7852 11.5227 15.8323 11.5342 15.8877C11.5383 15.9075 11.5542 15.9832 11.5918 16.0732C11.6087 16.1137 11.6549 16.2196 11.748 16.3311C11.8325 16.432 12.0871 16.6893 12.5156 16.6895C12.644 16.6895 12.7427 16.6639 12.7686 16.6572C12.809 16.6467 12.8411 16.6361 12.8584 16.6299C12.8934 16.6173 12.9211 16.6052 12.9336 16.5996C12.9611 16.5873 12.9853 16.5753 12.999 16.5684C13.0295 16.5529 13.064 16.534 13.0977 16.5156C13.1672 16.4777 13.2618 16.4245 13.375 16.3604C13.6031 16.2311 13.9229 16.0476 14.3008 15.8291C15.0572 15.3918 16.0571 14.8084 17.0537 14.2246C18.0503 13.6408 19.0454 13.0554 19.792 12.6123C20.1649 12.391 20.4784 12.204 20.6992 12.0703C20.8086 12.0041 20.8994 11.9484 20.9648 11.9072C20.9961 11.8876 21.0298 11.8661 21.0586 11.8467C21.0707 11.8385 21.0966 11.8206 21.125 11.7988C21.1362 11.7903 21.1705 11.7632 21.21 11.7256C21.2275 11.7089 21.2721 11.666 21.3193 11.6035C21.343 11.5708 21.3951 11.488 21.4219 11.4365C21.4568 11.3555 21.512 11.1372 21.5215 11C21.512 10.8627 21.4568 10.6444 21.4219 10.5635C21.395 10.512 21.3429 10.429 21.3193 10.3965C21.2721 10.334 21.2275 10.2911 21.21 10.2744C21.1705 10.2368 21.1362 10.2097 21.125 10.2012C21.0967 10.1795 21.0707 10.1625 21.0586 10.1543C21.0297 10.1348 20.9962 10.1135 20.9648 10.0938C20.8994 10.0526 20.8088 9.99604 20.6992 9.92969C20.4784 9.79597 20.1649 9.60899 19.792 9.3877C19.0454 8.9446 18.0503 8.35916 17.0537 7.77539C16.057 7.19154 15.0572 6.60825 14.3008 6.1709C13.9229 5.95244 13.6031 5.7689 13.375 5.63965C13.2618 5.57553 13.1671 5.52228 13.0977 5.48438C13.0642 5.4661 13.0294 5.44807 12.999 5.43262C12.9853 5.42562 12.9612 5.41272 12.9336 5.40039C12.9211 5.39481 12.8934 5.38274 12.8584 5.37012C12.8411 5.3639 12.809 5.35328 12.7686 5.34277C12.7556 5.33942 12.7244 5.33143 12.6807 5.32422L12.5156 5.31055Z" stroke="#AFAFAF" stroke-width="2"/>
</svg>
